<svg xmlns="http://www.w3.org/2000/svg" xmlns:xlink="http://www.w3.org/1999/xlink" viewBox="0 0 900 400" width="900" height="400" role="img" aria-label="Workshop hologram: the ESP32 field node assembling itself part by part">
<defs>
<linearGradient id="accent" x1="0" y1="0" x2="1" y2="0"><stop offset="0" stop-color="#0891b2"/><stop offset="1" stop-color="#b45309"/></linearGradient>
<linearGradient id="accentV" x1="0" y1="0" x2="0" y2="1"><stop offset="0" stop-color="#0891b2"/><stop offset="1" stop-color="#b45309"/></linearGradient>
<radialGradient id="glow1"><stop offset="0" stop-color="#0891b2" stop-opacity="0.34"/><stop offset="1" stop-color="#0891b2" stop-opacity="0"/></radialGradient>
<radialGradient id="glow2"><stop offset="0" stop-color="#b45309" stop-opacity="0.34"/><stop offset="1" stop-color="#b45309" stop-opacity="0"/></radialGradient>
<radialGradient id="dot"><stop offset="0" stop-color="#fff"/><stop offset=".4" stop-color="#38d9f5"/><stop offset="1" stop-color="#38d9f5" stop-opacity="0"/></radialGradient><linearGradient id="coneG" x1="0" y1="0" x2="0" y2="1"><stop offset="0" stop-color="#38d9f5" stop-opacity="0"/><stop offset="1" stop-color="#38d9f5" stop-opacity=".22"/></linearGradient><linearGradient id="scanG" x1="0" y1="0" x2="0" y2="1"><stop offset="0" stop-color="#38d9f5" stop-opacity="0"/><stop offset="1" stop-color="#38d9f5" stop-opacity=".22"/></linearGradient><pattern id="grid" width="18" height="18" patternUnits="userSpaceOnUse"><path d="M18 0H0V18" fill="none" stroke="#38d9f5" stroke-opacity=".07"/></pattern><clipPath id="screen"><rect x="0" y="0" width="900" height="360" rx="5"/></clipPath><clipPath id="stage"><rect x="230" y="-60" width="440" height="400"/></clipPath><filter id="blur" x="-50%" y="-50%" width="200%" height="200%"><feGaussianBlur stdDeviation="6"/></filter><filter id="glowT" x="-20%" y="-20%" width="140%" height="140%"><feGaussianBlur stdDeviation="1.4" result="b"/><feMerge><feMergeNode in="b"/><feMergeNode in="SourceGraphic"/></feMerge></filter>
</defs>
<style>
    .holo { animation: hover 7s ease-in-out infinite; }
    @keyframes hover { 0%,100% { transform: translateY(0) } 50% { transform: translateY(-6px) } }
    .flick { animation: flick 11s steps(1) infinite; }
    @keyframes flick { 0%,100% { opacity:1 } 37% { opacity:1 } 38% { opacity:.55 } 39% { opacity:1 } 81% { opacity:1 } 82% { opacity:.7 } 83% { opacity:1 } }
    .ring { transform-box: fill-box; transform-origin: center; animation: spin 20s linear infinite; }
    .ring2 { transform-box: fill-box; transform-origin: center; animation: spin 32s linear infinite reverse; }
    @keyframes spin { to { transform: rotate(360deg) } }
    .march { animation: march 6s linear infinite; }
    .march2 { animation: march 9s linear infinite reverse; }
    @keyframes march { to { stroke-dashoffset: -200 } }
    .emit { animation: emit 2.2s ease-in-out infinite; }
    @keyframes emit { 0%,100% { opacity:.6 } 50% { opacity:1 } }
    .scan { animation: scan 4s linear infinite; }
    @keyframes scan { from { transform: translateY(-40px) } to { transform: translateY(300px) } }
    .mote { animation: mote 6s ease-in-out infinite alternate; }
    @keyframes mote { to { transform: translateY(-18px) } }
    .step { animation: step 12s ease-in-out infinite; }
    @keyframes step { 0%,8% { opacity:.35 } 12%,100% { opacity:1 } }
    .fill { transform-box: fill-box; transform-origin: left; animation: fill 12s ease-in-out infinite; }
    @keyframes fill { 0% { transform: scaleX(0) } 45% { transform: scaleX(1) } 62% { transform: scaleX(1) } 70% { transform: scaleX(0) } 100% { transform: scaleX(0) } }
    .call { animation: call 12s ease-in-out infinite; }
    @keyframes call { 0%,40% { opacity:.35 } 48%,62% { opacity:1 } 70%,100% { opacity:.35 } }
    
.p-base { animation: as-base 12s cubic-bezier(.4,0,.2,1) infinite; }
@keyframes as-base { 0%,6% { transform: translateY(-0px) } 16%,60% { transform: translateY(0) } 72%,100% { transform: translateY(-0px) } }
.p-battery { animation: as-battery 12s cubic-bezier(.4,0,.2,1) infinite; }
@keyframes as-battery { 0%,11% { transform: translateY(-34px) } 21%,60% { transform: translateY(0) } 72%,100% { transform: translateY(-34px) } }
.p-pcb { animation: as-pcb 12s cubic-bezier(.4,0,.2,1) infinite; }
@keyframes as-pcb { 0%,16% { transform: translateY(-56px) } 26%,60% { transform: translateY(0) } 72%,100% { transform: translateY(-56px) } }
.p-esp32 { animation: as-esp32 12s cubic-bezier(.4,0,.2,1) infinite; }
@keyframes as-esp32 { 0%,21% { transform: translateY(-74px) } 31%,60% { transform: translateY(0) } 72%,100% { transform: translateY(-74px) } }
.p-probes { animation: as-probes 12s cubic-bezier(.4,0,.2,1) infinite; }
@keyframes as-probes { 0%,26% { transform: translateY(-86px) } 36%,60% { transform: translateY(0) } 72%,100% { transform: translateY(-86px) } }
.p-antenna { animation: as-antenna 12s cubic-bezier(.4,0,.2,1) infinite; }
@keyframes as-antenna { 0%,31% { transform: translateY(-92px) } 41%,60% { transform: translateY(0) } 72%,100% { transform: translateY(-92px) } }
.p-lid { animation: as-lid 12s cubic-bezier(.4,0,.2,1) infinite; }
@keyframes as-lid { 0%,36% { transform: translateY(-104px) } 46%,60% { transform: translateY(0) } 72%,100% { transform: translateY(-104px) } }
    .wv { transform-box: fill-box; transform-origin: center; animation: wv 1.1s ease-in-out infinite alternate; }
    @keyframes wv { from { transform: scaleY(.2) } to { transform: scaleY(1) } }
    .jv-caret { animation: jvc 1s steps(2) infinite; }
    @keyframes jvc { 50% { opacity:0 } }
    .jv-dot { animation: jvd 2.4s ease-in-out infinite; }
    @keyframes jvd { 0%,100% { opacity:.35 } 50% { opacity:1 } }
    </style>
    <g id="jarvis-bar">
      <path d="M12.5,0.5 H899.5 V27.5 L887.5,39.5 H0.5 V12.5 Z" fill="#eaf4fa" stroke="#0891b2" stroke-opacity=".55"/>
      <path d="M0.5 39.5 H899.5" stroke="#0891b2" stroke-opacity=".35"/>
      <circle class="jv-dot" cx="18" cy="20" r="4" fill="#0891b2"/>
      <circle cx="18" cy="20" r="7" fill="none" stroke="#0891b2" stroke-opacity=".5"/>
      <text x="32" y="24" font-family="ui-monospace,SFMono-Regular,'SF Mono',Menlo,Consolas,'Liberation Mono',monospace" font-size="10.5" font-weight="700" fill="#0891b2" letter-spacing="2">J.A.R.V.I.S.</text>
      <text x="144" y="24" font-family="ui-monospace,SFMono-Regular,'SF Mono',Menlo,Consolas,'Liberation Mono',monospace" font-size="11" fill="#43667c">▸</text>
      <clipPath id="jv-clip"><rect x="158" y="6" width="0" height="28">
        <animate attributeName="width" values="0.0;6.8;13.5;20.2;27.0;33.8;40.5;47.2;54.0;60.8;67.5;74.2;81.0;87.8;94.5;101.2;108.0;114.8;121.5;128.2;135.0;141.8;148.5;155.2;162.0;168.8;175.5;182.2;189.0;195.8;202.5;209.2;216.0;222.8;229.5;236.2;243.0;249.8;256.5;263.2;270.0;276.8;283.5;290.2;297.0;303.8;310.5;317.2;324.0;330.8;337.5;344.2;351.0;357.8;364.5;371.2;378.0" calcMode="discrete" begin="0.4s" dur="1.96s" fill="freeze"/></rect></clipPath>
      <g clip-path="url(#jv-clip)"><text x="158" y="24" font-family="ui-monospace,SFMono-Regular,'SF Mono',Menlo,Consolas,'Liberation Mono',monospace" font-size="11" fill="#0b2233">Rendering the field node. Assembling in three, two, one…</text></g>
      <rect class="jv-caret" x="158" y="12" width="6" height="14" fill="#0891b2" opacity=".9">
        <animate attributeName="x" values="0.0;6.8;13.5;20.2;27.0;33.8;40.5;47.2;54.0;60.8;67.5;74.2;81.0;87.8;94.5;101.2;108.0;114.8;121.5;128.2;135.0;141.8;148.5;155.2;162.0;168.8;175.5;182.2;189.0;195.8;202.5;209.2;216.0;222.8;229.5;236.2;243.0;249.8;256.5;263.2;270.0;276.8;283.5;290.2;297.0;303.8;310.5;317.2;324.0;330.8;337.5;344.2;351.0;357.8;364.5;371.2;378.0" calcMode="discrete" begin="0.4s" dur="1.96s" fill="freeze" additive="sum"/></rect>
      <rect class="wv" style="animation-delay:-0.00s" x="682.0" y="14" width="3" height="12" rx="1" fill="#0891b2"/><rect class="wv" style="animation-delay:-0.13s" x="687.0" y="14" width="3" height="12" rx="1" fill="#0891b2"/><rect class="wv" style="animation-delay:-0.26s" x="692.0" y="14" width="3" height="12" rx="1" fill="#0891b2"/><rect class="wv" style="animation-delay:-0.39s" x="697.0" y="14" width="3" height="12" rx="1" fill="#0891b2"/><rect class="wv" style="animation-delay:-0.52s" x="702.0" y="14" width="3" height="12" rx="1" fill="#0891b2"/><rect class="wv" style="animation-delay:-0.65s" x="707.0" y="14" width="3" height="12" rx="1" fill="#0891b2"/><rect class="wv" style="animation-delay:-0.78s" x="712.0" y="14" width="3" height="12" rx="1" fill="#0891b2"/><rect class="wv" style="animation-delay:-0.91s" x="717.0" y="14" width="3" height="12" rx="1" fill="#0891b2"/><rect class="wv" style="animation-delay:-1.04s" x="722.0" y="14" width="3" height="12" rx="1" fill="#0891b2"/><rect class="wv" style="animation-delay:-1.17s" x="727.0" y="14" width="3" height="12" rx="1" fill="#0891b2"/>
      <text x="884" y="24" font-family="ui-monospace,SFMono-Regular,'SF Mono',Menlo,Consolas,'Liberation Mono',monospace" font-size="10" fill="#43667c" text-anchor="end" letter-spacing="1.5">MOD 06 · WORKSHOP</text>
    </g>
    <g transform="translate(0 40)">
<g clip-path="url(#screen)">
<rect x="0" y="0" width="900" height="360" rx="5" fill="#050d1a" stroke="none" stroke-width="1" />
<rect x="0" y="0" width="900" height="360" rx="0" fill="url(#grid)" stroke="none" stroke-width="1" />
<circle cx="450" cy="172" r="170" fill="#38d9f5" fill-opacity=".06" filter="url(#blur)"/>
<path d="M12 26 V12 H26" fill="none" stroke="#38d9f5" stroke-opacity=".7" stroke-width="1.5"/>
<path d="M888 26 V12 H874" fill="none" stroke="#38d9f5" stroke-opacity=".7" stroke-width="1.5"/>
<path d="M12 334 V348 H26" fill="none" stroke="#38d9f5" stroke-opacity=".7" stroke-width="1.5"/>
<path d="M888 334 V348 H874" fill="none" stroke="#38d9f5" stroke-opacity=".7" stroke-width="1.5"/>
<text x="30" y="34" font-family="ui-monospace,SFMono-Regular,'SF Mono',Menlo,Consolas,'Liberation Mono',monospace" font-size="11" font-weight="700" fill="#dbf4ff" letter-spacing="2" filter="url(#glowT)">WORKSHOP · HOLOGRAPHIC ASSEMBLY</text>
<text x="870" y="34" font-family="ui-monospace,SFMono-Regular,'SF Mono',Menlo,Consolas,'Liberation Mono',monospace" font-size="10" font-weight="400" fill="#7fa6bf" text-anchor="end" letter-spacing="1">UNIT: FIELD NODE · ESP32 · REV 2026.09</text>
<ellipse class="march" cx="450" cy="334" rx="150" ry="11" fill="none" stroke="#38d9f5" stroke-opacity=".6" stroke-dasharray="6 12 60 12"/>
<ellipse class="march2" cx="450" cy="334" rx="110" ry="8" fill="none" stroke="#ffb020" stroke-opacity=".6" stroke-dasharray="40 14 4 14"/>
<ellipse cx="450" cy="334" rx="60" ry="4.5" fill="none" stroke="#38d9f5" stroke-opacity=".8"/>
<circle class="emit" cx="450" cy="334" r="10" fill="url(#dot)"/>
<polygon points="420,332 480,332 570,60 330,60" fill="url(#coneG)"/>
<g transform="translate(450 238) scale(1.38) translate(-450 -232)"><g class="holo"><g class="flick" clip-path="url(#stage)">
<line x1="450" y1="32" x2="450" y2="242" stroke="#38d9f5" stroke-opacity=".25" stroke-dasharray="3 5"/>
<g class="p-base"><polygon points="437.0,165.5 540.9,225.5 463.0,270.5 359.1,210.5" fill="#38d9f5" stroke="#38d9f5" stroke-width="1.2" stroke-opacity="1.0" stroke-linejoin="round" fill-opacity=".18"/>
<polygon points="359.1,224.5 463.0,284.5 463.0,270.5 359.1,210.5" fill="#38d9f5" stroke="#38d9f5" stroke-width="1.2" stroke-opacity="1.0" stroke-linejoin="round" fill-opacity=".10"/>
<polygon points="540.9,239.5 463.0,284.5 463.0,270.5 540.9,225.5" fill="#38d9f5" stroke="#38d9f5" stroke-width="1.2" stroke-opacity="1.0" stroke-linejoin="round" fill-opacity=".06"/>
<polygon points="437.0,179.5 540.9,239.5 463.0,284.5 359.1,224.5" fill="none" stroke="#38d9f5" stroke-width="0.84" stroke-opacity="0.45" stroke-linejoin="round" /></g>
<g class="p-battery"><polygon points="436.1,156.0 467.3,174.0 406.7,209.0 375.5,191.0" fill="#ffb020" stroke="#ffb020" stroke-width="1.2" stroke-opacity="1.0" stroke-linejoin="round" fill-opacity=".18"/>
<polygon points="375.5,207.0 406.7,225.0 406.7,209.0 375.5,191.0" fill="#ffb020" stroke="#ffb020" stroke-width="1.2" stroke-opacity="1.0" stroke-linejoin="round" fill-opacity=".10"/>
<polygon points="467.3,190.0 406.7,225.0 406.7,209.0 467.3,174.0" fill="#ffb020" stroke="#ffb020" stroke-width="1.2" stroke-opacity="1.0" stroke-linejoin="round" fill-opacity=".06"/>
<polygon points="436.1,172.0 467.3,190.0 406.7,225.0 375.5,207.0" fill="none" stroke="#ffb020" stroke-width="0.84" stroke-opacity="0.45" stroke-linejoin="round" />
<line x1="441.3" y1="159.0" x2="380.7" y2="194.0" stroke="#ffb020" stroke-opacity=".35"/><line x1="448.3" y1="163.0" x2="387.6" y2="198.0" stroke="#ffb020" stroke-opacity=".35"/><line x1="455.2" y1="167.0" x2="394.6" y2="202.0" stroke="#ffb020" stroke-opacity=".35"/><line x1="462.1" y1="171.0" x2="401.5" y2="206.0" stroke="#ffb020" stroke-opacity=".35"/></g>
<g class="p-pcb"><polygon points="476.0,188.0 533.1,221.0 463.9,261.0 406.7,228.0" fill="#34d399" stroke="#34d399" stroke-width="1.2" stroke-opacity="1.0" stroke-linejoin="round" fill-opacity=".18"/>
<polygon points="406.7,231.0 463.9,264.0 463.9,261.0 406.7,228.0" fill="#34d399" stroke="#34d399" stroke-width="1.2" stroke-opacity="1.0" stroke-linejoin="round" fill-opacity=".10"/>
<polygon points="533.1,224.0 463.9,264.0 463.9,261.0 533.1,221.0" fill="#34d399" stroke="#34d399" stroke-width="1.2" stroke-opacity="1.0" stroke-linejoin="round" fill-opacity=".06"/>
<polygon points="476.0,191.0 533.1,224.0 463.9,264.0 406.7,231.0" fill="none" stroke="#34d399" stroke-width="0.84" stroke-opacity="0.45" stroke-linejoin="round" />
<polygon points="436.1,221.0 444.8,226.0 437.9,230.0 429.2,225.0" fill="#34d399" stroke="#34d399" stroke-width="0.9" stroke-opacity="1.0" stroke-linejoin="round" fill-opacity=".18"/>
<polygon points="429.2,229.0 437.9,234.0 437.9,230.0 429.2,225.0" fill="#34d399" stroke="#34d399" stroke-width="0.9" stroke-opacity="1.0" stroke-linejoin="round" fill-opacity=".10"/>
<polygon points="444.8,230.0 437.9,234.0 437.9,230.0 444.8,226.0" fill="#34d399" stroke="#34d399" stroke-width="0.9" stroke-opacity="1.0" stroke-linejoin="round" fill-opacity=".06"/>
<polygon points="436.1,225.0 444.8,230.0 437.9,234.0 429.2,229.0" fill="none" stroke="#34d399" stroke-width="0.63" stroke-opacity="0.45" stroke-linejoin="round" /><polygon points="451.7,230.0 460.4,235.0 453.5,239.0 444.8,234.0" fill="#34d399" stroke="#34d399" stroke-width="0.9" stroke-opacity="1.0" stroke-linejoin="round" fill-opacity=".18"/>
<polygon points="444.8,238.0 453.5,243.0 453.5,239.0 444.8,234.0" fill="#34d399" stroke="#34d399" stroke-width="0.9" stroke-opacity="1.0" stroke-linejoin="round" fill-opacity=".10"/>
<polygon points="460.4,239.0 453.5,243.0 453.5,239.0 460.4,235.0" fill="#34d399" stroke="#34d399" stroke-width="0.9" stroke-opacity="1.0" stroke-linejoin="round" fill-opacity=".06"/>
<polygon points="451.7,234.0 460.4,239.0 453.5,243.0 444.8,238.0" fill="none" stroke="#34d399" stroke-width="0.63" stroke-opacity="0.45" stroke-linejoin="round" /><polygon points="467.3,239.0 476.0,244.0 469.1,248.0 460.4,243.0" fill="#34d399" stroke="#34d399" stroke-width="0.9" stroke-opacity="1.0" stroke-linejoin="round" fill-opacity=".18"/>
<polygon points="460.4,247.0 469.1,252.0 469.1,248.0 460.4,243.0" fill="#34d399" stroke="#34d399" stroke-width="0.9" stroke-opacity="1.0" stroke-linejoin="round" fill-opacity=".10"/>
<polygon points="476.0,248.0 469.1,252.0 469.1,248.0 476.0,244.0" fill="#34d399" stroke="#34d399" stroke-width="0.9" stroke-opacity="1.0" stroke-linejoin="round" fill-opacity=".06"/>
<polygon points="467.3,243.0 476.0,248.0 469.1,252.0 460.4,247.0" fill="none" stroke="#34d399" stroke-width="0.63" stroke-opacity="0.45" stroke-linejoin="round" /><polygon points="455.2,210.0 463.9,215.0 456.9,219.0 448.3,214.0" fill="#34d399" stroke="#34d399" stroke-width="0.9" stroke-opacity="1.0" stroke-linejoin="round" fill-opacity=".18"/>
<polygon points="448.3,218.0 456.9,223.0 456.9,219.0 448.3,214.0" fill="#34d399" stroke="#34d399" stroke-width="0.9" stroke-opacity="1.0" stroke-linejoin="round" fill-opacity=".10"/>
<polygon points="463.9,219.0 456.9,223.0 456.9,219.0 463.9,215.0" fill="#34d399" stroke="#34d399" stroke-width="0.9" stroke-opacity="1.0" stroke-linejoin="round" fill-opacity=".06"/>
<polygon points="455.2,214.0 463.9,219.0 456.9,223.0 448.3,218.0" fill="none" stroke="#34d399" stroke-width="0.63" stroke-opacity="0.45" stroke-linejoin="round" /></g>
<g class="p-esp32"><polygon points="484.6,193.0 508.9,207.0 474.2,227.0 450.0,213.0" fill="#38d9f5" stroke="#38d9f5" stroke-width="1.2" stroke-opacity="1.0" stroke-linejoin="round" fill-opacity=".18"/>
<polygon points="450.0,219.0 474.2,233.0 474.2,227.0 450.0,213.0" fill="#38d9f5" stroke="#38d9f5" stroke-width="1.2" stroke-opacity="1.0" stroke-linejoin="round" fill-opacity=".10"/>
<polygon points="508.9,213.0 474.2,233.0 474.2,227.0 508.9,207.0" fill="#38d9f5" stroke="#38d9f5" stroke-width="1.2" stroke-opacity="1.0" stroke-linejoin="round" fill-opacity=".06"/>
<polygon points="484.6,199.0 508.9,213.0 474.2,233.0 450.0,219.0" fill="none" stroke="#38d9f5" stroke-width="0.84" stroke-opacity="0.45" stroke-linejoin="round" />
<line x1="481.2" y1="201.0" x2="476.0" y2="198.0" stroke="#38d9f5" stroke-opacity=".7"/><line x1="476.8" y1="203.5" x2="471.7" y2="200.5" stroke="#38d9f5" stroke-opacity=".7"/><line x1="472.5" y1="206.0" x2="467.3" y2="203.0" stroke="#38d9f5" stroke-opacity=".7"/><line x1="468.2" y1="208.5" x2="463.0" y2="205.5" stroke="#38d9f5" stroke-opacity=".7"/><line x1="463.9" y1="211.0" x2="458.7" y2="208.0" stroke="#38d9f5" stroke-opacity=".7"/><line x1="459.5" y1="213.5" x2="454.3" y2="210.5" stroke="#38d9f5" stroke-opacity=".7"/><line x1="455.2" y1="216.0" x2="450.0" y2="213.0" stroke="#38d9f5" stroke-opacity=".7"/></g>
<g class="p-probes"><line x1="536.6" y1="240.0" x2="536.6" y2="282.0" stroke="#ff6b6b" stroke-width="2" stroke-linecap="round"/><circle cx="536.6" cy="240.0" r="3" fill="none" stroke="#ff6b6b"/><line x1="515.8" y1="252.0" x2="515.8" y2="294.0" stroke="#ff6b6b" stroke-width="2" stroke-linecap="round"/><circle cx="515.8" cy="252.0" r="3" fill="none" stroke="#ff6b6b"/><line x1="495.0" y1="264.0" x2="495.0" y2="306.0" stroke="#ff6b6b" stroke-width="2" stroke-linecap="round"/><circle cx="495.0" cy="264.0" r="3" fill="none" stroke="#ff6b6b"/></g>
<g class="p-antenna"><line x1="389.4" y1="205.0" x2="389.4" y2="153.0" stroke="#38d9f5" stroke-width="2" stroke-linecap="round"/><circle cx="389.4" cy="151.0" r="4" fill="#38d9f5"/><circle cx="389.4" cy="151.0" r="10" fill="none" stroke="#38d9f5" stroke-opacity=".5"><animate attributeName="r" values="6;16" dur="1.6s" repeatCount="indefinite"/><animate attributeName="stroke-opacity" values=".7;0" dur="1.6s" repeatCount="indefinite"/></circle></g>
<g class="p-lid"><polygon points="437.0,157.5 540.9,217.5 463.0,262.5 359.1,202.5" fill="#38d9f5" stroke="#38d9f5" stroke-width="1.2" stroke-opacity="1.0" stroke-linejoin="round" fill-opacity=".18"/>
<polygon points="359.1,210.5 463.0,270.5 463.0,262.5 359.1,202.5" fill="#38d9f5" stroke="#38d9f5" stroke-width="1.2" stroke-opacity="1.0" stroke-linejoin="round" fill-opacity=".10"/>
<polygon points="540.9,225.5 463.0,270.5 463.0,262.5 540.9,217.5" fill="#38d9f5" stroke="#38d9f5" stroke-width="1.2" stroke-opacity="1.0" stroke-linejoin="round" fill-opacity=".06"/>
<polygon points="437.0,165.5 540.9,225.5 463.0,270.5 359.1,210.5" fill="none" stroke="#38d9f5" stroke-width="0.84" stroke-opacity="0.45" stroke-linejoin="round" />
<polygon points="443.1,178.0 505.4,214.0 456.9,242.0 394.6,206.0" fill="none" stroke="#38d9f5" stroke-width="0.9" stroke-opacity="0.6" stroke-linejoin="round" stroke-dasharray="3 3"/></g>
<circle class="mote" style="animation-delay:-3.8s" cx="371" cy="133" r="1.5" fill="#38d9f5" fill-opacity=".6"/>
<circle class="mote" style="animation-delay:-2.4s" cx="442" cy="126" r="1" fill="#38d9f5" fill-opacity=".6"/>
<circle class="mote" style="animation-delay:-0.0s" cx="378" cy="195" r="1" fill="#38d9f5" fill-opacity=".6"/>
<circle class="mote" style="animation-delay:-3.6s" cx="462" cy="132" r="1" fill="#38d9f5" fill-opacity=".6"/>
<circle class="mote" style="animation-delay:-0.4s" cx="370" cy="212" r="1" fill="#38d9f5" fill-opacity=".6"/>
<circle class="mote" style="animation-delay:-5.6s" cx="522" cy="108" r="1.5" fill="#38d9f5" fill-opacity=".6"/>
<circle class="mote" style="animation-delay:-1.1s" cx="313" cy="86" r="1" fill="#38d9f5" fill-opacity=".6"/>
<circle class="mote" style="animation-delay:-0.7s" cx="442" cy="98" r="1.5" fill="#38d9f5" fill-opacity=".6"/>
<circle class="mote" style="animation-delay:-1.6s" cx="536" cy="157" r="1.5" fill="#38d9f5" fill-opacity=".6"/>
<circle class="mote" style="animation-delay:-0.7s" cx="433" cy="55" r="1" fill="#38d9f5" fill-opacity=".6"/>
<circle class="mote" style="animation-delay:-4.5s" cx="311" cy="143" r="1.5" fill="#38d9f5" fill-opacity=".6"/>
<circle class="mote" style="animation-delay:-4.2s" cx="431" cy="117" r="1.5" fill="#38d9f5" fill-opacity=".6"/>
<circle class="mote" style="animation-delay:-2.8s" cx="550" cy="127" r="1" fill="#38d9f5" fill-opacity=".6"/>
<circle class="mote" style="animation-delay:-1.9s" cx="475" cy="61" r="1" fill="#38d9f5" fill-opacity=".6"/>
</g></g></g>
<g clip-path="url(#stage)"><rect class="scan" x="250" y="20" width="400" height="40" fill="url(#scanG)"/></g>
<text x="30" y="70" font-family="ui-monospace,SFMono-Regular,'SF Mono',Menlo,Consolas,'Liberation Mono',monospace" font-size="9.5" font-weight="700" fill="#38d9f5" letter-spacing="2">ASSEMBLY SEQUENCE</text>
<g class="step" style="animation-delay:0.72s">
<text x="30" y="92" font-family="ui-monospace,SFMono-Regular,'SF Mono',Menlo,Consolas,'Liberation Mono',monospace" font-size="10" font-weight="700" fill="#ffb020">01</text>
<text x="52" y="92" font-family="-apple-system,BlinkMacSystemFont,'Segoe UI',Helvetica,Arial,sans-serif" font-size="11.5" font-weight="400" fill="#dbf4ff">Mount base plate</text>
<rect x="30" y="99" width="190" height="2" fill="#38d9f5" fill-opacity=".15"/>
<rect class="fill" style="animation-delay:0.00s" x="30" y="99" width="190" height="2" fill="#38d9f5"/>
</g>
<g class="step" style="animation-delay:1.32s">
<text x="30" y="126" font-family="ui-monospace,SFMono-Regular,'SF Mono',Menlo,Consolas,'Liberation Mono',monospace" font-size="10" font-weight="700" fill="#ffb020">02</text>
<text x="52" y="126" font-family="-apple-system,BlinkMacSystemFont,'Segoe UI',Helvetica,Arial,sans-serif" font-size="11.5" font-weight="400" fill="#dbf4ff">Seat Li-ion pack</text>
<rect x="30" y="133" width="190" height="2" fill="#38d9f5" fill-opacity=".15"/>
<rect class="fill" style="animation-delay:0.60s" x="30" y="133" width="190" height="2" fill="#38d9f5"/>
</g>
<g class="step" style="animation-delay:1.92s">
<text x="30" y="160" font-family="ui-monospace,SFMono-Regular,'SF Mono',Menlo,Consolas,'Liberation Mono',monospace" font-size="10" font-weight="700" fill="#ffb020">03</text>
<text x="52" y="160" font-family="-apple-system,BlinkMacSystemFont,'Segoe UI',Helvetica,Arial,sans-serif" font-size="11.5" font-weight="400" fill="#dbf4ff">Drop PCB on standoffs</text>
<rect x="30" y="167" width="190" height="2" fill="#38d9f5" fill-opacity=".15"/>
<rect class="fill" style="animation-delay:1.20s" x="30" y="167" width="190" height="2" fill="#38d9f5"/>
</g>
<g class="step" style="animation-delay:2.52s">
<text x="30" y="194" font-family="ui-monospace,SFMono-Regular,'SF Mono',Menlo,Consolas,'Liberation Mono',monospace" font-size="10" font-weight="700" fill="#ffb020">04</text>
<text x="52" y="194" font-family="-apple-system,BlinkMacSystemFont,'Segoe UI',Helvetica,Arial,sans-serif" font-size="11.5" font-weight="400" fill="#dbf4ff">Flash ESP32 firmware</text>
<rect x="30" y="201" width="190" height="2" fill="#38d9f5" fill-opacity=".15"/>
<rect class="fill" style="animation-delay:1.80s" x="30" y="201" width="190" height="2" fill="#38d9f5"/>
</g>
<g class="step" style="animation-delay:3.12s">
<text x="30" y="228" font-family="ui-monospace,SFMono-Regular,'SF Mono',Menlo,Consolas,'Liberation Mono',monospace" font-size="10" font-weight="700" fill="#ffb020">05</text>
<text x="52" y="228" font-family="-apple-system,BlinkMacSystemFont,'Segoe UI',Helvetica,Arial,sans-serif" font-size="11.5" font-weight="400" fill="#dbf4ff">Wire soil / temp probes</text>
<rect x="30" y="235" width="190" height="2" fill="#38d9f5" fill-opacity=".15"/>
<rect class="fill" style="animation-delay:2.40s" x="30" y="235" width="190" height="2" fill="#38d9f5"/>
</g>
<g class="step" style="animation-delay:4.32s">
<text x="30" y="262" font-family="ui-monospace,SFMono-Regular,'SF Mono',Menlo,Consolas,'Liberation Mono',monospace" font-size="10" font-weight="700" fill="#ffb020">06</text>
<text x="52" y="262" font-family="-apple-system,BlinkMacSystemFont,'Segoe UI',Helvetica,Arial,sans-serif" font-size="11.5" font-weight="400" fill="#dbf4ff">Fit antenna + close lid</text>
<rect x="30" y="269" width="190" height="2" fill="#38d9f5" fill-opacity=".15"/>
<rect class="fill" style="animation-delay:3.60s" x="30" y="269" width="190" height="2" fill="#38d9f5"/>
</g>
<text x="30" y="326" font-family="ui-monospace,SFMono-Regular,'SF Mono',Menlo,Consolas,'Liberation Mono',monospace" font-size="8.5" font-weight="400" fill="#7fa6bf" letter-spacing="1.5">STATUS</text>
<text x="82" y="326" font-family="ui-monospace,SFMono-Regular,'SF Mono',Menlo,Consolas,'Liberation Mono',monospace" font-size="10" font-weight="400" fill="#34d399">assembling · looping every 12 s</text>
<text x="870" y="70" font-family="ui-monospace,SFMono-Regular,'SF Mono',Menlo,Consolas,'Liberation Mono',monospace" font-size="9.5" font-weight="700" fill="#38d9f5" text-anchor="end" letter-spacing="2">SPECIFICATION</text>
<g class="call" style="animation-delay:0.0s">
<text x="870" y="92" font-family="ui-monospace,SFMono-Regular,'SF Mono',Menlo,Consolas,'Liberation Mono',monospace" font-size="9" font-weight="700" fill="#38d9f5" text-anchor="end" letter-spacing="1.5">MCU</text>
<text x="870" y="106" font-family="-apple-system,BlinkMacSystemFont,'Segoe UI',Helvetica,Arial,sans-serif" font-size="11" font-weight="400" fill="#dbf4ff" text-anchor="end">ESP32 · Wi-Fi + BLE · 240 MHz</text>
<line x1="674" y1="112" x2="870" y2="112" stroke="#38d9f5" stroke-opacity=".3"/>
<circle cx="674" cy="112" r="2" fill="#38d9f5"/>
</g>
<g class="call" style="animation-delay:0.4s">
<text x="870" y="126" font-family="ui-monospace,SFMono-Regular,'SF Mono',Menlo,Consolas,'Liberation Mono',monospace" font-size="9" font-weight="700" fill="#ff6b6b" text-anchor="end" letter-spacing="1.5">SENSING</text>
<text x="870" y="140" font-family="-apple-system,BlinkMacSystemFont,'Segoe UI',Helvetica,Arial,sans-serif" font-size="11" font-weight="400" fill="#dbf4ff" text-anchor="end">soil moisture · temp · humidity</text>
<line x1="674" y1="146" x2="870" y2="146" stroke="#ff6b6b" stroke-opacity=".3"/>
<circle cx="674" cy="146" r="2" fill="#ff6b6b"/>
</g>
<g class="call" style="animation-delay:0.8s">
<text x="870" y="160" font-family="ui-monospace,SFMono-Regular,'SF Mono',Menlo,Consolas,'Liberation Mono',monospace" font-size="9" font-weight="700" fill="#ffb020" text-anchor="end" letter-spacing="1.5">POWER</text>
<text x="870" y="174" font-family="-apple-system,BlinkMacSystemFont,'Segoe UI',Helvetica,Arial,sans-serif" font-size="11" font-weight="400" fill="#dbf4ff" text-anchor="end">Li-ion pack · deep-sleep duty cycle</text>
<line x1="674" y1="180" x2="870" y2="180" stroke="#ffb020" stroke-opacity=".3"/>
<circle cx="674" cy="180" r="2" fill="#ffb020"/>
</g>
<g class="call" style="animation-delay:1.2s">
<text x="870" y="194" font-family="ui-monospace,SFMono-Regular,'SF Mono',Menlo,Consolas,'Liberation Mono',monospace" font-size="9" font-weight="700" fill="#38d9f5" text-anchor="end" letter-spacing="1.5">UPLINK</text>
<text x="870" y="208" font-family="-apple-system,BlinkMacSystemFont,'Segoe UI',Helvetica,Arial,sans-serif" font-size="11" font-weight="400" fill="#dbf4ff" text-anchor="end">MQTT → Python service → dashboard</text>
<line x1="674" y1="214" x2="870" y2="214" stroke="#38d9f5" stroke-opacity=".3"/>
<circle cx="674" cy="214" r="2" fill="#38d9f5"/>
</g>
<g class="call" style="animation-delay:1.6s">
<text x="870" y="228" font-family="ui-monospace,SFMono-Regular,'SF Mono',Menlo,Consolas,'Liberation Mono',monospace" font-size="9" font-weight="700" fill="#38d9f5" text-anchor="end" letter-spacing="1.5">ENCLOSURE</text>
<text x="870" y="242" font-family="-apple-system,BlinkMacSystemFont,'Segoe UI',Helvetica,Arial,sans-serif" font-size="11" font-weight="400" fill="#dbf4ff" text-anchor="end">IP-rated shell · vented lid</text>
<line x1="674" y1="248" x2="870" y2="248" stroke="#38d9f5" stroke-opacity=".3"/>
<circle cx="674" cy="248" r="2" fill="#38d9f5"/>
</g>
<g class="call" style="animation-delay:2.0s">
<text x="870" y="262" font-family="ui-monospace,SFMono-Regular,'SF Mono',Menlo,Consolas,'Liberation Mono',monospace" font-size="9" font-weight="700" fill="#34d399" text-anchor="end" letter-spacing="1.5">SOFTWARE</text>
<text x="870" y="276" font-family="-apple-system,BlinkMacSystemFont,'Segoe UI',Helvetica,Arial,sans-serif" font-size="11" font-weight="400" fill="#dbf4ff" text-anchor="end">Flask API · SQLite · alerts</text>
<line x1="674" y1="282" x2="870" y2="282" stroke="#34d399" stroke-opacity=".3"/>
<circle cx="674" cy="282" r="2" fill="#34d399"/>
</g>
<rect x="0.5" y="0.5" width="899" height="359" rx="5" fill="none" stroke="#1d3a55" stroke-width="1" />
</g>
</g>
    <path d="M14.5,0.5 H899.5 V385.5 L885.5,399.5 H0.5 V14.5 Z" fill="none" stroke="#0891b2" stroke-opacity=".45" stroke-width="1"/>
    <path d="M840 399.5 H885.5 V354" fill="none" stroke="#0891b2" stroke-width="2" stroke-opacity=".9"/>
    <path d="M0.5 46 V14.5 H46" fill="none" stroke="#0891b2" stroke-width="2" stroke-opacity=".9"/>
    </svg>