<svg xmlns="http://www.w3.org/2000/svg" xmlns:xlink="http://www.w3.org/1999/xlink" viewBox="0 0 900 190" width="900" height="190" role="img" aria-label="See all repositories">
<defs>
<linearGradient id="accent" x1="0" y1="0" x2="1" y2="0"><stop offset="0" stop-color="#0891b2"/><stop offset="1" stop-color="#b45309"/></linearGradient>
<linearGradient id="accentV" x1="0" y1="0" x2="0" y2="1"><stop offset="0" stop-color="#0891b2"/><stop offset="1" stop-color="#b45309"/></linearGradient>
<radialGradient id="glow1"><stop offset="0" stop-color="#0891b2" stop-opacity="0.34"/><stop offset="1" stop-color="#0891b2" stop-opacity="0"/></radialGradient>
<radialGradient id="glow2"><stop offset="0" stop-color="#b45309" stop-opacity="0.34"/><stop offset="1" stop-color="#b45309" stop-opacity="0"/></radialGradient>

</defs>
<style>
    .dash { stroke-dasharray: 6 6; animation: march 1.6s linear infinite; }
    @keyframes march { to { stroke-dashoffset: -12 } }
    .arrow { animation: nudge 2s ease-in-out infinite; }
    @keyframes nudge { 0%,100% { transform: translateX(0) } 50% { transform: translateX(6px) } }
    .orbit { transform-box: fill-box; transform-origin: center; animation: spin 18s linear infinite; }
    @keyframes spin { to { transform: rotate(360deg) } }
    
    .wv { transform-box: fill-box; transform-origin: center; animation: wv 1.1s ease-in-out infinite alternate; }
    @keyframes wv { from { transform: scaleY(.2) } to { transform: scaleY(1) } }
    .jv-caret { animation: jvc 1s steps(2) infinite; }
    @keyframes jvc { 50% { opacity:0 } }
    .jv-dot { animation: jvd 2.4s ease-in-out infinite; }
    @keyframes jvd { 0%,100% { opacity:.35 } 50% { opacity:1 } }
    </style>
    <g id="jarvis-bar">
      <path d="M12.5,0.5 H899.5 V27.5 L887.5,39.5 H0.5 V12.5 Z" fill="#eaf4fa" stroke="#0891b2" stroke-opacity=".55"/>
      <path d="M0.5 39.5 H899.5" stroke="#0891b2" stroke-opacity=".35"/>
      <circle class="jv-dot" cx="18" cy="20" r="4" fill="#0891b2"/>
      <circle cx="18" cy="20" r="7" fill="none" stroke="#0891b2" stroke-opacity=".5"/>
      <text x="32" y="24" font-family="ui-monospace,SFMono-Regular,'SF Mono',Menlo,Consolas,'Liberation Mono',monospace" font-size="10.5" font-weight="700" fill="#0891b2" letter-spacing="2">J.A.R.V.I.S.</text>
      <text x="144" y="24" font-family="ui-monospace,SFMono-Regular,'SF Mono',Menlo,Consolas,'Liberation Mono',monospace" font-size="11" fill="#43667c">▸</text>
      <clipPath id="jv-clip"><rect x="158" y="6" width="0" height="28">
        <animate attributeName="width" values="0.0;6.8;13.5;20.2;27.0;33.8;40.5;47.2;54.0;60.8;67.5;74.2;81.0;87.8;94.5;101.2;108.0;114.8;121.5;128.2;135.0;141.8;148.5;155.2;162.0;168.8;175.5;182.2;189.0;195.8;202.5;209.2;216.0;222.8;229.5;236.2;243.0;249.8;256.5;263.2;270.0;276.8" calcMode="discrete" begin="0.4s" dur="1.44s" fill="freeze"/></rect></clipPath>
      <g clip-path="url(#jv-clip)"><text x="158" y="24" font-family="ui-monospace,SFMono-Regular,'SF Mono',Menlo,Consolas,'Liberation Mono',monospace" font-size="11" fill="#0b2233">The full archive is available on request.</text></g>
      <rect class="jv-caret" x="158" y="12" width="6" height="14" fill="#0891b2" opacity=".9">
        <animate attributeName="x" values="0.0;6.8;13.5;20.2;27.0;33.8;40.5;47.2;54.0;60.8;67.5;74.2;81.0;87.8;94.5;101.2;108.0;114.8;121.5;128.2;135.0;141.8;148.5;155.2;162.0;168.8;175.5;182.2;189.0;195.8;202.5;209.2;216.0;222.8;229.5;236.2;243.0;249.8;256.5;263.2;270.0;276.8" calcMode="discrete" begin="0.4s" dur="1.44s" fill="freeze" additive="sum"/></rect>
      <rect class="wv" style="animation-delay:-0.00s" x="674.0" y="14" width="3" height="12" rx="1" fill="#0891b2"/><rect class="wv" style="animation-delay:-0.13s" x="679.0" y="14" width="3" height="12" rx="1" fill="#0891b2"/><rect class="wv" style="animation-delay:-0.26s" x="684.0" y="14" width="3" height="12" rx="1" fill="#0891b2"/><rect class="wv" style="animation-delay:-0.39s" x="689.0" y="14" width="3" height="12" rx="1" fill="#0891b2"/><rect class="wv" style="animation-delay:-0.52s" x="694.0" y="14" width="3" height="12" rx="1" fill="#0891b2"/><rect class="wv" style="animation-delay:-0.65s" x="699.0" y="14" width="3" height="12" rx="1" fill="#0891b2"/><rect class="wv" style="animation-delay:-0.78s" x="704.0" y="14" width="3" height="12" rx="1" fill="#0891b2"/><rect class="wv" style="animation-delay:-0.91s" x="709.0" y="14" width="3" height="12" rx="1" fill="#0891b2"/><rect class="wv" style="animation-delay:-1.04s" x="714.0" y="14" width="3" height="12" rx="1" fill="#0891b2"/><rect class="wv" style="animation-delay:-1.17s" x="719.0" y="14" width="3" height="12" rx="1" fill="#0891b2"/>
      <text x="884" y="24" font-family="ui-monospace,SFMono-Regular,'SF Mono',Menlo,Consolas,'Liberation Mono',monospace" font-size="10" fill="#43667c" text-anchor="end" letter-spacing="1.5">MOD 05.6 · ARCHIVE</text>
    </g>
    <g transform="translate(0 40)">
<rect x="6.5" y="6.5" width="887" height="135" rx="5" fill="#f6fafd" stroke="#a9cddf" stroke-width="1" class="dash"/>
<rect x="26" y="24" width="42" height="42" rx="11" fill="#eaf4fa" stroke="#a9cddf" stroke-width="1" />
<g transform="translate(32 30) scale(1.25)" fill="none" stroke="#0891b2" stroke-width="1.6" stroke-linecap="round" stroke-linejoin="round"><path d="M3 6a2 2 0 0 1 2-2h4l2 2h8a2 2 0 0 1 2 2v10a2 2 0 0 1-2 2H5a2 2 0 0 1-2-2z"/></g>
<text x="84" y="44" font-family="-apple-system,BlinkMacSystemFont,'Segoe UI',Helvetica,Arial,sans-serif" font-size="19" font-weight="700" fill="#0b2233">All repositories</text>
<text x="84" y="63" font-family="ui-monospace,SFMono-Regular,'SF Mono',Menlo,Consolas,'Liberation Mono',monospace" font-size="12" font-weight="400" fill="#43667c">github.com/ayush-jena-721?tab=repositories</text>
<text x="26" y="92" font-family="-apple-system,BlinkMacSystemFont,'Segoe UI',Helvetica,Arial,sans-serif" font-size="13.5" font-weight="400" fill="#43667c">Every project ships with a README, a reproducible training script, saved metrics and an MIT license.</text>
<text x="26" y="117" font-family="-apple-system,BlinkMacSystemFont,'Segoe UI',Helvetica,Arial,sans-serif" font-size="12.5" font-weight="400" fill="#43667c">Also on GitHub: IoT builds, desktop tools and the experiments that never became products.</text>
<text x="734" y="63" font-family="-apple-system,BlinkMacSystemFont,'Segoe UI',Helvetica,Arial,sans-serif" font-size="12.5" font-weight="700" fill="#0891b2" text-anchor="end">Browse the code</text>
<g class="arrow"><g transform="translate(738 52) scale(0.7)" fill="none" stroke="#0891b2" stroke-width="1.6" stroke-linecap="round" stroke-linejoin="round"><path d="M5 12h14M13 6l6 6-6 6"/></g></g>
<g class="orbit"><circle cx="816" cy="71.0" r="36" fill="none" stroke="#b45309" stroke-opacity=".6" stroke-dasharray="4 8 30 8"/></g>
<circle cx="816" cy="71.0" r="22" fill="none" stroke="#0891b2" stroke-opacity=".6"/>
<g transform="translate(802 57.0) scale(1.15)" fill="none" stroke="#0b2233" stroke-width="1.6" stroke-linecap="round" stroke-linejoin="round"><path d="M12 2a10 10 0 0 0-3.2 19.5c.5.1.7-.2.7-.5v-1.7c-2.8.6-3.4-1.2-3.4-1.2-.4-1.1-1.1-1.4-1.1-1.4-.9-.6.1-.6.1-.6 1 .1 1.5 1 1.5 1 .9 1.6 2.4 1.1 3 .9.1-.7.3-1.1.6-1.4-2.2-.3-4.6-1.1-4.6-5 0-1.1.4-2 1-2.7-.1-.3-.4-1.3.1-2.7 0 0 .8-.3 2.7 1a9.4 9.4 0 0 1 5 0c1.9-1.3 2.7-1 2.7-1 .5 1.4.2 2.4.1 2.7.6.7 1 1.6 1 2.7 0 3.9-2.4 4.7-4.6 5 .4.3.7.9.7 1.9v2.8c0 .3.2.6.7.5A10 10 0 0 0 12 2z"/></g>
</g>
    <path d="M14.5,0.5 H899.5 V175.5 L885.5,189.5 H0.5 V14.5 Z" fill="none" stroke="#0891b2" stroke-opacity=".45" stroke-width="1"/>
    <path d="M840 189.5 H885.5 V144" fill="none" stroke="#0891b2" stroke-width="2" stroke-opacity=".9"/>
    <path d="M0.5 46 V14.5 H46" fill="none" stroke="#0891b2" stroke-width="2" stroke-opacity=".9"/>
    </svg>